<?xml version="1.0" encoding="UTF-8"?>
<svg width="78px" height="78px" viewBox="0 0 78 78" version="1.1" xmlns="http://www.w3.org/2000/svg" xmlns:xlink="http://www.w3.org/1999/xlink">
    <!-- Generator: Sketch 53.2 (72643) - https://sketchapp.com -->
    <title>process-research</title>
    <desc>Created with Sketch.</desc>
    <g id="Page-2" stroke="none" stroke-width="1" fill="none" fill-rule="evenodd">
        <g id="Mobile" transform="translate(-8.000000, -1061.000000)">
            <g id=".process-step" transform="translate(8.000000, 1061.000000)">
                <g id="icon-iterate">
                    <rect id="Rectangle" x="0" y="0" width="78" height="78"></rect>
                    <path d="M18.8709677,16.9 C17.7799901,16.9 16.8560986,17.6043853 16.5088208,18.5774194 L15.516129,18.5774194 C14.1302921,18.5774194 13,19.7077115 13,21.0935484 L13,54.6419355 C13,56.0277724 14.1302921,57.1580645 15.516129,57.1580645 L33.3125,57.1580645 C33.8072079,57.1580645 34.2363915,57.4922383 34.3576111,57.9705645 C34.7278226,59.4677921 36.0677921,60.5129032 37.6108871,60.5129032 L40.3891129,60.5129032 C41.9322079,60.5129032 43.2721774,59.4677921 43.6423889,57.9705645 C43.7636093,57.4922383 44.1927921,57.1580645 44.6875,57.1580645 L62.483871,57.1580645 C63.8697079,57.1580645 65,56.0277724 65,54.6419355 L65,21.0935484 C65,19.7077115 63.8697079,18.5774194 62.483871,18.5774194 L61.4911792,18.5774194 C61.1439014,17.6043853 60.2200099,16.9 59.1290323,16.9 L42.3548387,16.9 C40.9821066,16.9 39.7731855,17.5716228 39.0065528,18.597077 C38.2431954,17.5683468 37.0211694,16.9 35.6451613,16.9 L18.8709677,16.9 Z M18.8709677,18.5774194 L35.6451613,18.5774194 C37.0309982,18.5774194 38.1612903,19.7077115 38.1612903,21.0935484 L38.1612903,49.6096774 C38.1612903,50.0716228 38.5347786,50.4483871 39,50.4483871 C39.4652222,50.4483871 39.8387097,50.0716228 39.8387097,49.6096774 L39.8387097,21.0935484 C39.8387097,19.7077115 40.9690018,18.5774194 42.3548387,18.5774194 L59.1290323,18.5774194 C59.5909776,18.5774194 59.9677419,18.9541837 59.9677419,19.416129 L59.9677419,51.2870968 C59.9677419,51.7490421 59.5909776,52.1258065 59.1290323,52.1258065 L42.3548387,52.1258065 C40.9788306,52.1258065 39.7633566,52.8007061 39,53.8294355 C38.2366434,52.8007061 37.0211694,52.1258065 35.6451613,52.1258065 L18.8709677,52.1258065 C18.4090224,52.1258065 18.0322581,51.7490421 18.0322581,51.2870968 L18.0322581,19.416129 C18.0322581,18.9541837 18.4090224,18.5774194 18.8709677,18.5774194 Z M15.516129,20.2548387 L16.3548387,20.2548387 L16.3548387,51.2870968 C16.3548387,52.6729337 17.4851308,53.8032258 18.8709677,53.8032258 L35.6451613,53.8032258 C37.0309982,53.8032258 38.1612903,54.9335179 38.1612903,56.3193548 C38.1612903,56.7813002 38.5347786,57.1580645 39,57.1580645 C39.4652222,57.1580645 39.8387097,56.7813002 39.8387097,56.3193548 C39.8387097,54.9335179 40.9690018,53.8032258 42.3548387,53.8032258 L59.1290323,53.8032258 C60.5148692,53.8032258 61.6451613,52.6729337 61.6451613,51.2870968 L61.6451613,20.2548387 L62.483871,20.2548387 C62.9458163,20.2548387 63.3225806,20.631603 63.3225806,21.0935484 L63.3225806,54.6419355 C63.3225806,55.1038808 62.9458163,55.4806452 62.483871,55.4806452 L44.6875,55.4806452 C43.4196066,55.4806452 42.325353,56.3357357 42.0173889,57.5643145 C41.8306452,58.3112903 41.1622984,58.8354839 40.3891129,58.8354839 L37.6108871,58.8354839 C36.8377016,58.8354839 36.1693548,58.3145663 35.9826111,57.5643145 C35.674647,56.3357357 34.5803934,55.4806452 33.3125,55.4806452 L15.516129,55.4806452 C15.0541837,55.4806452 14.6774194,55.1038808 14.6774194,54.6419355 L14.6774194,21.0935484 C14.6774194,20.631603 15.0541837,20.2548387 15.516129,20.2548387 Z M22.2258065,23.6096774 C21.7605851,23.6096774 21.3870968,23.9864417 21.3870968,24.4483871 C21.3870968,24.9103325 21.7605851,25.2870968 22.2258065,25.2870968 L25.5806452,25.2870968 C26.0458674,25.2870968 26.4193548,24.9103325 26.4193548,24.4483871 C26.4193548,23.9864417 26.0458674,23.6096774 25.5806452,23.6096774 L22.2258065,23.6096774 Z M30.6129032,23.6096774 C30.1476819,23.6096774 29.7741935,23.9864417 29.7741935,24.4483871 C29.7741935,24.9103325 30.1476819,25.2870968 30.6129032,25.2870968 L31.4516129,25.2870968 C31.9168351,25.2870968 32.2903226,24.9103325 32.2903226,24.4483871 C32.2903226,23.9864417 31.9168351,23.6096774 31.4516129,23.6096774 L30.6129032,23.6096774 Z M33.9677419,23.6096774 C33.5025206,23.6096774 33.1290323,23.9864417 33.1290323,24.4483871 C33.1290323,24.9103325 33.5025206,25.2870968 33.9677419,25.2870968 L34.8064516,25.2870968 C35.2716738,25.2870968 35.6451613,24.9103325 35.6451613,24.4483871 C35.6451613,23.9864417 35.2716738,23.6096774 34.8064516,23.6096774 L33.9677419,23.6096774 Z M44.0322581,23.6096774 C43.5670367,23.6096774 43.1935484,23.9864417 43.1935484,24.4483871 C43.1935484,24.9103325 43.5670367,25.2870968 44.0322581,25.2870968 L47.3870968,25.2870968 C47.852319,25.2870968 48.2258065,24.9103325 48.2258065,24.4483871 C48.2258065,23.9864417 47.852319,23.6096774 47.3870968,23.6096774 L44.0322581,23.6096774 Z M55.7741935,23.6096774 C55.3089722,23.6096774 54.9354839,23.9864417 54.9354839,24.4483871 C54.9354839,24.9103325 55.3089722,25.2870968 55.7741935,25.2870968 L56.6129032,25.2870968 C57.0781254,25.2870968 57.4516129,24.9103325 57.4516129,24.4483871 C57.4516129,23.9864417 57.0781254,23.6096774 56.6129032,23.6096774 L55.7741935,23.6096774 Z M22.2258065,26.9645161 C21.7605851,26.9645161 21.3870968,27.3412805 21.3870968,27.8032258 C21.3870968,28.2651712 21.7605851,28.6419355 22.2258065,28.6419355 L27.2580645,28.6419355 C27.7232867,28.6419355 28.0967742,28.2651712 28.0967742,27.8032258 C28.0967742,27.3412805 27.7232867,26.9645161 27.2580645,26.9645161 L22.2258065,26.9645161 Z M30.6129032,26.9645161 C30.1476819,26.9645161 29.7741935,27.3412805 29.7741935,27.8032258 C29.7741935,28.2651712 30.1476819,28.6419355 30.6129032,28.6419355 L31.4516129,28.6419355 C31.9168351,28.6419355 32.2903226,28.2651712 32.2903226,27.8032258 C32.2903226,27.3412805 31.9168351,26.9645161 31.4516129,26.9645161 L30.6129032,26.9645161 Z M33.9677419,26.9645161 C33.5025206,26.9645161 33.1290323,27.3412805 33.1290323,27.8032258 C33.1290323,28.2651712 33.5025206,28.6419355 33.9677419,28.6419355 L34.8064516,28.6419355 C35.2716738,28.6419355 35.6451613,28.2651712 35.6451613,27.8032258 C35.6451613,27.3412805 35.2716738,26.9645161 34.8064516,26.9645161 L33.9677419,26.9645161 Z M44.0322581,26.9645161 C43.5670367,26.9645161 43.1935484,27.3412805 43.1935484,27.8032258 C43.1935484,28.2651712 43.5670367,28.6419355 44.0322581,28.6419355 L49.0645161,28.6419355 C49.5297383,28.6419355 49.9032258,28.2651712 49.9032258,27.8032258 C49.9032258,27.3412805 49.5297383,26.9645161 49.0645161,26.9645161 L44.0322581,26.9645161 Z M52.4193548,26.9645161 C51.9541335,26.9645161 51.5806452,27.3412805 51.5806452,27.8032258 C51.5806452,28.2651712 51.9541335,28.6419355 52.4193548,28.6419355 L53.2580645,28.6419355 C53.7232867,28.6419355 54.0967742,28.2651712 54.0967742,27.8032258 C54.0967742,27.3412805 53.7232867,26.9645161 53.2580645,26.9645161 L52.4193548,26.9645161 Z M55.7741935,26.9645161 C55.3089722,26.9645161 54.9354839,27.3412805 54.9354839,27.8032258 C54.9354839,28.2651712 55.3089722,28.6419355 55.7741935,28.6419355 L56.6129032,28.6419355 C57.0781254,28.6419355 57.4516129,28.2651712 57.4516129,27.8032258 C57.4516129,27.3412805 57.0781254,26.9645161 56.6129032,26.9645161 L55.7741935,26.9645161 Z M22.2258065,31.9967742 C21.7605851,31.9967742 21.3870968,32.3735385 21.3870968,32.8354839 C21.3870968,33.2974292 21.7605851,33.6741935 22.2258065,33.6741935 L25.5806452,33.6741935 C26.0458674,33.6741935 26.4193548,33.2974292 26.4193548,32.8354839 C26.4193548,32.3735385 26.0458674,31.9967742 25.5806452,31.9967742 L22.2258065,31.9967742 Z M33.9677419,31.9967742 C33.5025206,31.9967742 33.1290323,32.3735385 33.1290323,32.8354839 C33.1290323,33.2974292 33.5025206,33.6741935 33.9677419,33.6741935 L34.8064516,33.6741935 C35.2716738,33.6741935 35.6451613,33.2974292 35.6451613,32.8354839 C35.6451613,32.3735385 35.2716738,31.9967742 34.8064516,31.9967742 L33.9677419,31.9967742 Z M44.0322581,31.9967742 C43.5670367,31.9967742 43.1935484,32.3735385 43.1935484,32.8354839 C43.1935484,33.2974292 43.5670367,33.6741935 44.0322581,33.6741935 L47.3870968,33.6741935 C47.852319,33.6741935 48.2258065,33.2974292 48.2258065,32.8354839 C48.2258065,32.3735385 47.852319,31.9967742 47.3870968,31.9967742 L44.0322581,31.9967742 Z M52.4193548,31.9967742 C51.9541335,31.9967742 51.5806452,32.3735385 51.5806452,32.8354839 C51.5806452,33.2974292 51.9541335,33.6741935 52.4193548,33.6741935 L53.2580645,33.6741935 C53.7232867,33.6741935 54.0967742,33.2974292 54.0967742,32.8354839 C54.0967742,32.3735385 53.7232867,31.9967742 53.2580645,31.9967742 L52.4193548,31.9967742 Z M55.7741935,31.9967742 C55.3089722,31.9967742 54.9354839,32.3735385 54.9354839,32.8354839 C54.9354839,33.2974292 55.3089722,33.6741935 55.7741935,33.6741935 L56.6129032,33.6741935 C57.0781254,33.6741935 57.4516129,33.2974292 57.4516129,32.8354839 C57.4516129,32.3735385 57.0781254,31.9967742 56.6129032,31.9967742 L55.7741935,31.9967742 Z M22.2258065,35.3516129 C21.7605851,35.3516129 21.3870968,35.7283772 21.3870968,36.1903226 C21.3870968,36.6522679 21.7605851,37.0290323 22.2258065,37.0290323 L23.9032258,37.0290323 C24.368448,37.0290323 24.7419355,36.6522679 24.7419355,36.1903226 C24.7419355,35.7283772 24.368448,35.3516129 23.9032258,35.3516129 L22.2258065,35.3516129 Z M30.6129032,35.3516129 C30.1476819,35.3516129 29.7741935,35.7283772 29.7741935,36.1903226 C29.7741935,36.6522679 30.1476819,37.0290323 30.6129032,37.0290323 L31.4516129,37.0290323 C31.9168351,37.0290323 32.2903226,36.6522679 32.2903226,36.1903226 C32.2903226,35.7283772 31.9168351,35.3516129 31.4516129,35.3516129 L30.6129032,35.3516129 Z M33.9677419,35.3516129 C33.5025206,35.3516129 33.1290323,35.7283772 33.1290323,36.1903226 C33.1290323,36.6522679 33.5025206,37.0290323 33.9677419,37.0290323 L34.8064516,37.0290323 C35.2716738,37.0290323 35.6451613,36.6522679 35.6451613,36.1903226 C35.6451613,35.7283772 35.2716738,35.3516129 34.8064516,35.3516129 L33.9677419,35.3516129 Z M44.0322581,35.3516129 C43.5670367,35.3516129 43.1935484,35.7283772 43.1935484,36.1903226 C43.1935484,36.6522679 43.5670367,37.0290323 44.0322581,37.0290323 L45.7096774,37.0290323 C46.1748996,37.0290323 46.5483871,36.6522679 46.5483871,36.1903226 C46.5483871,35.7283772 46.1748996,35.3516129 45.7096774,35.3516129 L44.0322581,35.3516129 Z M55.7741935,35.3516129 C55.3089722,35.3516129 54.9354839,35.7283772 54.9354839,36.1903226 C54.9354839,36.6522679 55.3089722,37.0290323 55.7741935,37.0290323 L56.6129032,37.0290323 C57.0781254,37.0290323 57.4516129,36.6522679 57.4516129,36.1903226 C57.4516129,35.7283772 57.0781254,35.3516129 56.6129032,35.3516129 L55.7741935,35.3516129 Z M22.2258065,40.383871 C21.7605851,40.383871 21.3870968,40.7606353 21.3870968,41.2225806 C21.3870968,41.684526 21.7605851,42.0612903 22.2258065,42.0612903 L25.5806452,42.0612903 C26.0458674,42.0612903 26.4193548,41.684526 26.4193548,41.2225806 C26.4193548,40.7606353 26.0458674,40.383871 25.5806452,40.383871 L22.2258065,40.383871 Z M30.6129032,40.383871 C30.1476819,40.383871 29.7741935,40.7606353 29.7741935,41.2225806 C29.7741935,41.684526 30.1476819,42.0612903 30.6129032,42.0612903 L31.4516129,42.0612903 C31.9168351,42.0612903 32.2903226,41.684526 32.2903226,41.2225806 C32.2903226,40.7606353 31.9168351,40.383871 31.4516129,40.383871 L30.6129032,40.383871 Z M33.9677419,40.383871 C33.5025206,40.383871 33.1290323,40.7606353 33.1290323,41.2225806 C33.1290323,41.684526 33.5025206,42.0612903 33.9677419,42.0612903 L34.8064516,42.0612903 C35.2716738,42.0612903 35.6451613,41.684526 35.6451613,41.2225806 C35.6451613,40.7606353 35.2716738,40.383871 34.8064516,40.383871 L33.9677419,40.383871 Z M22.2258065,43.7387097 C21.7605851,43.7387097 21.3870968,44.115474 21.3870968,44.5774194 C21.3870968,45.0393647 21.7605851,45.416129 22.2258065,45.416129 L23.9032258,45.416129 C24.368448,45.416129 24.7419355,45.0393647 24.7419355,44.5774194 C24.7419355,44.115474 24.368448,43.7387097 23.9032258,43.7387097 L22.2258065,43.7387097 Z M33.9677419,43.7387097 C33.5025206,43.7387097 33.1290323,44.115474 33.1290323,44.5774194 C33.1290323,45.0393647 33.5025206,45.416129 33.9677419,45.416129 L34.8064516,45.416129 C35.2716738,45.416129 35.6451613,45.0393647 35.6451613,44.5774194 C35.6451613,44.115474 35.2716738,43.7387097 34.8064516,43.7387097 L33.9677419,43.7387097 Z" id="Shape" fill="#E5627C" fill-rule="nonzero"></path>
                </g>
            </g>
        </g>
    </g>
</svg>