<?xml version="1.0" encoding="UTF-8"?>
<svg width="78px" height="78px" viewBox="0 0 78 78" version="1.1" xmlns="http://www.w3.org/2000/svg" xmlns:xlink="http://www.w3.org/1999/xlink">
    <!-- Generator: Sketch 53.2 (72643) - https://sketchapp.com -->
    <title>process-analyze@3x</title>
    <desc>Created with Sketch.</desc>
    <g id="Page-2" stroke="none" stroke-width="1" fill="none" fill-rule="evenodd">
        <g id="Mobile" transform="translate(-8.000000, -1147.000000)">
            <g id=".process-step" transform="translate(8.000000, 1147.000000)">
                <g id="icon-analyze">
                    <rect id="Rectangle" x="0" y="0" width="78" height="78"></rect>
                    <path d="M23.5625,14.95 C22.2199705,14.95 21.125,16.0449705 21.125,17.3875 L21.125,18.2285643 C18.8239748,18.6189453 17.0625,20.6184566 17.0625,23.030566 C17.0625,25.4426754 18.8239748,27.4421875 21.125,27.8325678 L21.125,28.4800287 C20.5219731,28.559375 19.9221189,28.6799801 19.3349609,28.8481928 C17.5385746,29.3623533 15.9738768,30.4033689 14.8090824,31.8601563 C13.6442873,33.3169428 13,35.1482422 13,37.0176267 L13,44.561816 C13,46.1296875 14.2758793,47.405566 15.84375,47.405566 C16.2404783,47.405566 16.6181641,47.3230469 16.9609375,47.1770504 L16.3674314,60.2563959 C16.3261719,61.1545894 16.6435547,62.0020017 17.265625,62.6526363 C17.8845217,63.3000973 18.7160642,63.655566 19.6206059,63.655566 C21.1059574,63.655566 22.365967,62.6558099 22.75,61.2783689 C23.134033,62.6558099 24.3940434,63.655566 25.8857422,63.655566 C26.7839357,63.655566 27.6186527,63.3000973 28.2375486,62.6526363 C28.8564453,62.0020017 29.1738281,61.1545894 29.1357422,60.2563959 L28.6279297,49.0781736 L62.5625,49.0781736 C63.9050295,49.0781736 65,47.9832031 65,46.6406736 L65,45.0156736 C65,43.9556146 64.3208012,43.0510738 63.375,42.7178221 L63.375,17.3875 C63.375,16.0449705 62.2800295,14.95 60.9375,14.95 L23.5625,14.95 Z M23.5625,16.575 L60.9375,16.575 C61.3850096,16.575 61.75,16.9399896 61.75,17.3875 L61.75,42.5781736 L37.375,42.5781736 C36.9243168,42.5781736 36.5625,42.9399896 36.5625,43.3906736 C36.5625,43.8381832 36.9243168,44.2031736 37.375,44.2031736 L62.5625,44.2031736 C63.0100096,44.2031736 63.375,44.5649896 63.375,45.0156736 L63.375,46.6406736 C63.375,47.0881832 63.0100096,47.4531736 62.5625,47.4531736 L28.5517578,47.4531736 L28.4375,44.9490234 L28.4375,37.2524896 L29.1738281,37.7507812 C30.649658,38.7473629 32.3889158,39.280566 34.1726076,39.280566 L37.6574705,39.280566 C38.8762205,39.280566 40.015625,38.5632812 40.4409184,37.4238767 C40.7519531,36.5923334 40.6408689,35.8242674 40.3203125,35.1799801 L48.4865721,27.6897457 C48.8166502,27.3882318 48.8388672,26.8740721 48.5373533,26.5439939 C48.2358403,26.2139158 47.7185061,26.1916988 47.3884279,26.4932127 L39.2094731,33.9897943 C38.7873533,33.7454098 38.3049314,33.593066 37.78125,33.593066 L35.3596189,33.593066 C34.6740721,33.593066 34.0075686,33.3772457 33.4521484,32.9741693 L30.8654783,31.1016111 C29.497559,30.1082031 27.9709471,29.3655269 26.3459471,28.898974 L26.1682127,28.8481928 C25.0510252,28.5308099 23.8989262,28.3721189 22.75,28.3721189 L22.75,27.8325678 C25.0541996,27.4453611 26.8125,25.4426754 26.8125,23.030566 C26.8125,22.4116693 26.6950686,21.8213377 26.4824219,21.2786129 C26.6791996,21.1294428 26.8125,20.9041016 26.8125,20.6406736 L26.8125,19.0125 C26.8125,18.5649896 26.450684,18.2 26,18.2 C25.5493168,18.2 25.1875,18.5649896 25.1875,19.0125 L25.1875,19.4060547 C24.5146484,18.8030269 23.6767578,18.3840816 22.75,18.2285643 L22.75,17.3875 C22.75,16.9399896 23.1149904,16.575 23.5625,16.575 Z M30.0625,18.2 C29.6118168,18.2 29.25,18.5649896 29.25,19.0125 L29.25,20.6406736 C29.25,21.0881832 29.6118168,21.4531736 30.0625,21.4531736 C30.513184,21.4531736 30.875,21.0881832 30.875,20.6406736 L30.875,19.0125 C30.875,18.5649896 30.513184,18.2 30.0625,18.2 Z M34.125,18.2 C33.6743168,18.2 33.3125,18.5649896 33.3125,19.0125 L33.3125,20.6406736 C33.3125,21.0881832 33.6743168,21.4531736 34.125,21.4531736 C34.575684,21.4531736 34.9375,21.0881832 34.9375,20.6406736 L34.9375,19.0125 C34.9375,18.5649896 34.575684,18.2 34.125,18.2 Z M38.1875,18.2 C37.7368168,18.2 37.375,18.5649896 37.375,19.0125 L37.375,20.6406736 C37.375,21.0881832 37.7368168,21.4531736 38.1875,21.4531736 C38.638184,21.4531736 39,21.0881832 39,20.6406736 L39,19.0125 C39,18.5649896 38.638184,18.2 38.1875,18.2 Z M42.25,18.2 C41.7993168,18.2 41.4375,18.5649896 41.4375,19.0125 L41.4375,20.6406736 C41.4375,21.0881832 41.7993168,21.4531736 42.25,21.4531736 C42.700684,21.4531736 43.0625,21.0881832 43.0625,20.6406736 L43.0625,19.0125 C43.0625,18.5649896 42.700684,18.2 42.25,18.2 Z M46.3125,18.2 C45.8618168,18.2 45.5,18.5649896 45.5,19.0125 L45.5,20.6406736 C45.5,21.0881832 45.8618168,21.4531736 46.3125,21.4531736 C46.763184,21.4531736 47.125,21.0881832 47.125,20.6406736 L47.125,19.0125 C47.125,18.5649896 46.763184,18.2 46.3125,18.2 Z M50.375,18.2 C49.9243168,18.2 49.5625,18.5649896 49.5625,19.0125 L49.5625,20.6406736 C49.5625,21.0881832 49.9243168,21.4531736 50.375,21.4531736 C50.825684,21.4531736 51.1875,21.0881832 51.1875,20.6406736 L51.1875,19.0125 C51.1875,18.5649896 50.825684,18.2 50.375,18.2 Z M54.4375,18.2 C53.9868168,18.2 53.625,18.5649896 53.625,19.0125 L53.625,20.6406736 C53.625,21.0881832 53.9868168,21.4531736 54.4375,21.4531736 C54.888184,21.4531736 55.25,21.0881832 55.25,20.6406736 L55.25,19.0125 C55.25,18.5649896 54.888184,18.2 54.4375,18.2 Z M58.5,18.2 C58.0493168,18.2 57.6875,18.5649896 57.6875,19.0125 L57.6875,20.6406736 C57.6875,21.0881832 58.0493168,21.4531736 58.5,21.4531736 C58.950684,21.4531736 59.3125,21.0881832 59.3125,20.6406736 L59.3125,19.0125 C59.3125,18.5649896 58.950684,18.2 58.5,18.2 Z M21.9375,19.5425287 C23.8608403,19.5425287 25.4255373,21.1072266 25.4255373,23.030566 C25.4255373,24.9539063 23.8608403,26.5186033 21.9375,26.5186033 C20.0141606,26.5186033 18.4494627,24.9539063 18.4494627,23.030566 C18.4494627,21.1072266 20.0141606,19.5425287 21.9375,19.5425287 Z M22.75,29.9971189 C23.7497561,29.9971189 24.7495121,30.1335937 25.7207031,30.4128906 L26.0507812,30.5049314 C27.3901371,30.8889644 28.6533203,31.5046875 29.7832031,32.3235348 L32.5,34.2913082 C33.3315434,34.8911615 34.3344731,35.218066 35.3596189,35.218066 L37.78125,35.218066 C37.8098143,35.218066 37.8352049,35.2244141 37.8605955,35.2275877 L37.6384279,35.4338863 C37.3083498,35.7354002 37.2861328,36.2495599 37.5876467,36.5796381 C37.7495121,36.7541988 37.9685061,36.843066 38.1875,36.843066 C38.3842777,36.843066 38.5810547,36.7732422 38.7365721,36.6272457 L38.9968264,36.3923828 C38.9968264,36.4082517 39,36.4209471 39,36.436816 C39,37.1096676 38.4541016,37.655566 37.78125,37.655566 L34.1757812,37.655566 C32.7158203,37.655566 31.2907717,37.2207517 30.084717,36.4050781 L28.0820312,35.0530269 C27.8312986,34.8848142 27.5107422,34.8657709 27.2441406,35.0085937 C26.9775391,35.1514158 26.8125,35.4243646 26.8125,35.7258785 L26.8125,44.968066 C26.8125,44.9807613 26.8125,44.9934566 26.8125,45.0061519 L27.5107422,60.3293941 C27.5297856,60.7769037 27.3710938,61.2021971 27.0632326,61.5259271 C26.7204592,61.8845703 26.247559,62.0654783 25.7429201,62.0242188 C24.9145512,61.9575677 24.2956545,61.2275877 24.2543949,60.4023924 L23.5625,46.5518064 C23.540283,46.1201658 23.1816406,45.780566 22.75,45.780566 C22.3183594,45.780566 21.959717,46.1201658 21.9375,46.5518064 L21.2487795,60.3801754 C21.2043455,61.2053707 20.5981449,61.9448724 19.7729496,62.0210443 C19.2651371,62.0686519 18.7858889,61.8909176 18.4399418,61.5291016 C18.1289062,61.2053707 17.9702152,60.7800781 17.9892578,60.3325678 L18.6875,44.968066 L18.6875,35.7607908 C18.6875,35.3132812 18.325684,34.9482908 17.875,34.9482908 C17.4243168,34.9482908 17.0625,35.3132812 17.0625,35.7607908 L17.0625,44.561816 C17.0625,45.2346676 16.5166016,45.780566 15.84375,45.780566 C15.1708984,45.780566 14.625,45.2346676 14.625,44.561816 L14.625,37.2239254 C14.625,35.6211424 15.1232908,34.0374019 16.1389158,32.7996094 C17.084717,31.6475096 18.3415529,30.8223142 19.7792969,30.4128906 C20.7504887,30.1335937 21.7502439,29.9971189 22.75,29.9971189 Z M30.875,42.5781736 C30.4243168,42.5781736 30.0625,42.9399896 30.0625,43.3906736 C30.0625,43.8381832 30.4243168,44.2031736 30.875,44.2031736 L34.125,44.2031736 C34.575684,44.2031736 34.9375,43.8381832 34.9375,43.3906736 C34.9375,42.9399896 34.575684,42.5781736 34.125,42.5781736 L30.875,42.5781736 Z" id="Shape" fill="#E5627C" fill-rule="nonzero"></path>
                </g>
            </g>
        </g>
    </g>
</svg>