<?xml version="1.0" encoding="UTF-8"?>
<svg width="78px" height="78px" viewBox="0 0 78 78" version="1.1" xmlns="http://www.w3.org/2000/svg" xmlns:xlink="http://www.w3.org/1999/xlink">
    <!-- Generator: Sketch 53.2 (72643) - https://sketchapp.com -->
    <title>process-iterate</title>
    <desc>Created with Sketch.</desc>
    <g id="Page-2" stroke="none" stroke-width="1" fill="none" fill-rule="evenodd">
        <g id="Mobile" transform="translate(-8.000000, -1319.000000)">
            <g id=".process-step" transform="translate(8.000000, 1319.000000)">
                <g id="icon-iterate">
                    <rect id="Rectangle" x="0" y="0" width="78" height="78"></rect>
                    <path d="M20.4285714,19.5 C19.2011159,19.5 18.2,20.5011159 18.2,21.7285714 L18.2,55.9 C18.2,57.1274555 19.2011159,58.1285714 20.4285714,58.1285714 L57.5714286,58.1285714 C58.7988841,58.1285714 59.8,57.1274555 59.8,55.9 L59.8,21.7285714 C59.8,20.5011159 58.7988841,19.5 57.5714286,19.5 L20.4285714,19.5 Z M20.4285714,20.9857143 L57.5714286,20.9857143 C57.9805802,20.9857143 58.3142857,21.3194198 58.3142857,21.7285714 L58.3142857,55.9 C58.3142857,56.3091516 57.9805802,56.6428571 57.5714286,56.6428571 L20.4285714,56.6428571 C20.0194198,56.6428571 19.6857143,56.3091516 19.6857143,55.9 L19.6857143,21.7285714 C19.6857143,21.3194198 20.0194198,20.9857143 20.4285714,20.9857143 Z M36.0285714,24.7 C35.8399555,24.7 35.6484373,24.7725445 35.5033484,24.9176341 L31.7919643,28.6319198 C31.7223214,28.7015627 31.6671873,28.7828127 31.6294643,28.8727682 C31.5540182,29.0526786 31.5540182,29.2616071 31.6294643,29.4415182 C31.6671873,29.531473 31.7223214,29.612723 31.7919643,29.6823659 L35.5033484,33.3966516 C35.6484373,33.5417413 35.8370539,33.6142857 36.0285714,33.6142857 C36.2200897,33.6142857 36.4087055,33.5417413 36.5537945,33.3966516 C36.843973,33.106473 36.843973,32.6363841 36.5537945,32.3462055 L34.1075897,29.9 L45.6857143,29.9 C48.5526786,29.9 50.8857143,32.2330357 50.8857143,35.1 L50.8857143,39.5571429 C50.8857143,41.1212055 50.1892857,42.5895087 48.9763397,43.5848214 C48.6600445,43.8430802 48.6107143,44.3102682 48.8718754,44.6294643 C49.0169643,44.806473 49.2316968,44.8993302 49.4464286,44.8993302 C49.6147325,44.8993302 49.7801341,44.8470984 49.9194198,44.7339286 C51.4776786,43.4571429 52.3714286,41.5709825 52.3714286,39.5571429 L52.3714286,35.1 C52.3714286,31.4147325 49.3738841,28.4142857 45.6857143,28.4142857 L34.1075897,28.4142857 L36.5537945,25.9680802 C36.843973,25.6779016 36.843973,25.2078127 36.5537945,24.9176341 C36.4087055,24.7725445 36.2171873,24.7 36.0285714,24.7 Z M28.7015627,29.7084825 C28.5129468,29.6881698 28.3156254,29.7375 28.156027,29.8651786 C26.5484373,31.1419643 25.6285714,33.0513397 25.6285714,35.1 L25.6285714,39.5571429 C25.6285714,43.2424111 28.6261159,46.2428571 32.3142857,46.2428571 L43.8924111,46.2428571 L41.4462055,48.6890627 C41.156027,48.9792413 41.156027,49.4493302 41.4462055,49.7395087 C41.5912945,49.8845984 41.7799111,49.9571429 41.9714286,49.9571429 C42.1629468,49.9571429 42.3515627,49.8845984 42.4966516,49.7395087 L46.2080357,46.025223 C46.2776786,45.9555802 46.3328127,45.8743302 46.3705357,45.7843754 C46.4459825,45.6044643 46.4459825,45.3955357 46.3705357,45.2156254 C46.3328127,45.1256698 46.2776786,45.0444198 46.2080357,44.974777 L42.4966516,41.2604913 C42.206473,40.9703127 41.7363841,40.9703127 41.4462055,41.2604913 C41.156027,41.5506698 41.156027,42.0207587 41.4462055,42.3109373 L43.8924111,44.7571429 L32.3142857,44.7571429 C29.4473214,44.7571429 27.1142857,42.4241071 27.1142857,39.5571429 L27.1142857,35.1 C27.1142857,33.5069198 27.831027,32.0212055 29.0787945,31.0287945 C29.4008929,30.7734373 29.4531254,30.30625 29.1977682,29.9841516 C29.0700897,29.8245539 28.8901786,29.7287945 28.7015627,29.7084825 Z M21.9142857,52.1857143 C21.5022325,52.1857143 21.1714286,52.5194198 21.1714286,52.9285714 L21.1714286,54.4142857 C21.1714286,54.8234373 21.5022325,55.1571429 21.9142857,55.1571429 C22.3263397,55.1571429 22.6571429,54.8234373 22.6571429,54.4142857 L22.6571429,52.9285714 C22.6571429,52.5194198 22.3263397,52.1857143 21.9142857,52.1857143 Z M25.6285714,52.1857143 C25.2165182,52.1857143 24.8857143,52.5194198 24.8857143,52.9285714 L24.8857143,54.4142857 C24.8857143,54.8234373 25.2165182,55.1571429 25.6285714,55.1571429 C26.0406254,55.1571429 26.3714286,54.8234373 26.3714286,54.4142857 L26.3714286,52.9285714 C26.3714286,52.5194198 26.0406254,52.1857143 25.6285714,52.1857143 Z M29.3428571,52.1857143 C28.9308039,52.1857143 28.6,52.5194198 28.6,52.9285714 L28.6,54.4142857 C28.6,54.8234373 28.9308039,55.1571429 29.3428571,55.1571429 C29.7549111,55.1571429 30.0857143,54.8234373 30.0857143,54.4142857 L30.0857143,52.9285714 C30.0857143,52.5194198 29.7549111,52.1857143 29.3428571,52.1857143 Z M33.0571429,52.1857143 C32.6450897,52.1857143 32.3142857,52.5194198 32.3142857,52.9285714 L32.3142857,54.4142857 C32.3142857,54.8234373 32.6450897,55.1571429 33.0571429,55.1571429 C33.4691968,55.1571429 33.8,54.8234373 33.8,54.4142857 L33.8,52.9285714 C33.8,52.5194198 33.4691968,52.1857143 33.0571429,52.1857143 Z M36.7714286,52.1857143 C36.3593754,52.1857143 36.0285714,52.5194198 36.0285714,52.9285714 L36.0285714,54.4142857 C36.0285714,54.8234373 36.3593754,55.1571429 36.7714286,55.1571429 C37.1834825,55.1571429 37.5142857,54.8234373 37.5142857,54.4142857 L37.5142857,52.9285714 C37.5142857,52.5194198 37.1834825,52.1857143 36.7714286,52.1857143 Z M40.4857143,52.1857143 C40.0736611,52.1857143 39.7428571,52.5194198 39.7428571,52.9285714 L39.7428571,54.4142857 C39.7428571,54.8234373 40.0736611,55.1571429 40.4857143,55.1571429 C40.8977682,55.1571429 41.2285714,54.8234373 41.2285714,54.4142857 L41.2285714,52.9285714 C41.2285714,52.5194198 40.8977682,52.1857143 40.4857143,52.1857143 Z M44.2,52.1857143 C43.7879468,52.1857143 43.4571429,52.5194198 43.4571429,52.9285714 L43.4571429,54.4142857 C43.4571429,54.8234373 43.7879468,55.1571429 44.2,55.1571429 C44.6120539,55.1571429 44.9428571,54.8234373 44.9428571,54.4142857 L44.9428571,52.9285714 C44.9428571,52.5194198 44.6120539,52.1857143 44.2,52.1857143 Z M47.9142857,52.1857143 C47.5022325,52.1857143 47.1714286,52.5194198 47.1714286,52.9285714 L47.1714286,54.4142857 C47.1714286,54.8234373 47.5022325,55.1571429 47.9142857,55.1571429 C48.3263397,55.1571429 48.6571429,54.8234373 48.6571429,54.4142857 L48.6571429,52.9285714 C48.6571429,52.5194198 48.3263397,52.1857143 47.9142857,52.1857143 Z M51.6285714,52.1857143 C51.2165182,52.1857143 50.8857143,52.5194198 50.8857143,52.9285714 L50.8857143,54.4142857 C50.8857143,54.8234373 51.2165182,55.1571429 51.6285714,55.1571429 C52.0406254,55.1571429 52.3714286,54.8234373 52.3714286,54.4142857 L52.3714286,52.9285714 C52.3714286,52.5194198 52.0406254,52.1857143 51.6285714,52.1857143 Z M55.3428571,52.1857143 C54.9308039,52.1857143 54.6,52.5194198 54.6,52.9285714 L54.6,54.4142857 C54.6,54.8234373 54.9308039,55.1571429 55.3428571,55.1571429 C55.7549111,55.1571429 56.0857143,54.8234373 56.0857143,54.4142857 L56.0857143,52.9285714 C56.0857143,52.5194198 55.7549111,52.1857143 55.3428571,52.1857143 Z" id="Shape" fill="#E5627C" fill-rule="nonzero"></path>
                </g>
            </g>
        </g>
    </g>
</svg>