<?xml version="1.0" encoding="UTF-8"?>
<svg width="78px" height="78px" viewBox="0 0 78 78" version="1.1" xmlns="http://www.w3.org/2000/svg" xmlns:xlink="http://www.w3.org/1999/xlink">
    <!-- Generator: Sketch 53.2 (72643) - https://sketchapp.com -->
    <title>process-design</title>
    <desc>Created with Sketch.</desc>
    <g id="Page-2" stroke="none" stroke-width="1" fill="none" fill-rule="evenodd">
        <g id="Mobile" transform="translate(-8.000000, -1233.000000)">
            <g id=".process-step" transform="translate(8.000000, 1233.000000)">
                <g id="icon-design">
                    <rect id="Rectangle" x="0" y="0" width="78" height="78"></rect>
                    <path d="M31.6875,13 C31.2368168,13 30.875,13.3649904 30.875,13.8125 L30.875,14.625 L15.4375,14.625 C14.0949705,14.625 13,15.7199705 13,17.0625 L13,46.3125 C13,47.6550295 14.0949705,48.75 15.4375,48.75 L24.5654297,48.75 C24.5844731,48.772217 24.5939939,48.7976076 24.6130373,48.8166502 L27.1267092,51.3303221 L25.2382812,53.2219236 C22.727783,51.7397465 19.4460451,52.1174314 17.3417969,54.2216797 C16.0976562,55.4689939 15.4216311,57.1257326 15.4375,58.8872074 C15.4565434,60.6486814 16.1706545,62.2895512 17.4433594,63.5146484 C18.6271971,64.6477049 20.2490234,65.2824705 21.9279783,65.2824705 C22.0200199,65.2824705 22.1152344,65.2824705 22.2072752,65.2792969 C23.990967,65.203125 25.6730955,64.4160156 26.8188481,63.1115721 C27.7741701,62.0324705 28.3359375,60.6645512 28.4248047,59.2268064 L31.7255859,55.9260252 L34.9882812,59.1950686 C35.0771484,60.6296389 35.6389158,61.997559 36.5910643,63.0766606 C37.7399904,64.3779297 39.4221189,65.1682127 41.2089844,65.2412109 C41.3010252,65.247559 41.3930668,65.247559 41.4851076,65.247559 C43.1640625,65.247559 44.7858889,64.6096189 45.9697266,63.4765625 C47.2424314,62.2546389 47.9565434,60.6137699 47.9755859,58.8522951 C47.9946293,57.0876467 47.3154297,55.430908 46.0712891,54.1835938 C43.9670408,52.0825199 40.6853029,51.7016606 38.1748047,53.1838377 L36.3181154,51.3303221 L38.9016111,48.75 L62.5625,48.75 C63.9050295,48.75 65,47.6550295 65,46.3125 L65,17.0625 C65,15.7199705 63.9050295,14.625 62.5625,14.625 L32.5,14.625 L32.5,13.8125 C32.5,13.3649904 32.138184,13 31.6875,13 Z M15.4375,16.25 L30.875,16.25 L30.875,20.3125 C30.875,20.7600096 31.2368168,21.125 31.6875,21.125 C32.138184,21.125 32.5,20.7600096 32.5,20.3125 L32.5,16.25 L62.5625,16.25 C63.0100096,16.25 63.375,16.6149904 63.375,17.0625 L63.375,46.3125 C63.375,46.7600096 63.0100096,47.125 62.5625,47.125 L40.5266111,47.125 L45.4936527,42.1579592 C46.5664062,41.0852049 47.1630859,39.653809 47.1630859,38.1367188 C47.1630859,36.6164549 46.5664062,35.1882326 45.4936527,34.1123047 C45.1762699,33.7949219 44.6621094,33.7949219 44.3447266,34.1123047 L32.5,45.9570313 L32.5,43.0625 C32.5,42.6149904 32.138184,42.25 31.6875,42.25 C31.2368168,42.25 30.875,42.6149904 30.875,43.0625 L30.875,47.125 L15.4375,47.125 C14.9899904,47.125 14.625,46.7600096 14.625,46.3125 L14.625,17.0625 C14.625,16.6149904 14.9899904,16.25 15.4375,16.25 Z M59.3125,18.6875 C58.8618168,18.6875 58.5,19.0524904 58.5,19.5 C58.5,19.9475096 58.8618168,20.3125 59.3125,20.3125 L60.9375,20.3125 C61.388184,20.3125 61.75,19.9475096 61.75,19.5 C61.75,19.0524904 61.388184,18.6875 60.9375,18.6875 L59.3125,18.6875 Z M31.6875,22.75 C31.2368168,22.75 30.875,23.1149904 30.875,23.5625 L30.875,25.1875 C30.875,25.6350096 31.2368168,26 31.6875,26 C32.138184,26 32.5,25.6350096 32.5,25.1875 L32.5,23.5625 C32.5,23.1149904 32.138184,22.75 31.6875,22.75 Z M59.3125,22.75 C58.8618168,22.75 58.5,23.1149904 58.5,23.5625 C58.5,24.0100096 58.8618168,24.375 59.3125,24.375 L60.9375,24.375 C61.388184,24.375 61.75,24.0100096 61.75,23.5625 C61.75,23.1149904 61.388184,22.75 60.9375,22.75 L59.3125,22.75 Z M59.3125,26.8125 C58.8618168,26.8125 58.5,27.1774904 58.5,27.625 C58.5,28.0725096 58.8618168,28.4375 59.3125,28.4375 L60.9375,28.4375 C61.388184,28.4375 61.75,28.0725096 61.75,27.625 C61.75,27.1774904 61.388184,26.8125 60.9375,26.8125 L59.3125,26.8125 Z M31.6875,27.625 C31.2368168,27.625 30.875,27.9899904 30.875,28.4375 L30.875,30.0625 C30.875,30.5100096 31.2368168,30.875 31.6875,30.875 C32.138184,30.875 32.5,30.5100096 32.5,30.0625 L32.5,28.4375 C32.5,27.9899904 32.138184,27.625 31.6875,27.625 Z M59.3125,30.875 C58.8618168,30.875 58.5,31.2399904 58.5,31.6875 C58.5,32.1350096 58.8618168,32.5 59.3125,32.5 L60.9375,32.5 C61.388184,32.5 61.75,32.1350096 61.75,31.6875 C61.75,31.2399904 61.388184,30.875 60.9375,30.875 L59.3125,30.875 Z M31.6875,32.5 C31.2368168,32.5 30.875,32.8649904 30.875,33.3125 L30.875,34.9375 C30.875,35.3850096 31.2368168,35.75 31.6875,35.75 C32.138184,35.75 32.5,35.3850096 32.5,34.9375 L32.5,33.3125 C32.5,32.8649904 32.138184,32.5 31.6875,32.5 Z M59.3125,34.9375 C58.8618168,34.9375 58.5,35.3024904 58.5,35.75 C58.5,36.1975096 58.8618168,36.5625 59.3125,36.5625 L60.9375,36.5625 C61.388184,36.5625 61.75,36.1975096 61.75,35.75 C61.75,35.3024904 61.388184,34.9375 60.9375,34.9375 L59.3125,34.9375 Z M44.8620607,35.8959965 C45.3000486,36.5561528 45.5349123,37.3273924 45.5349123,38.1367188 C45.5349123,39.2221684 45.1127934,40.240967 44.3447266,41.009033 L27.0441892,58.3095703 C26.8950199,58.4587404 26.8093264,58.6618654 26.8093264,58.8776858 C26.7998047,60.0424809 26.3713377,61.1660156 25.6000981,62.0388186 C24.7431641,63.0100096 23.4831545,63.600342 22.140625,63.6542969 C20.7980955,63.7114262 19.5,63.2321779 18.5668949,62.3403324 C17.6115721,61.4230955 17.0751953,60.1916502 17.0625,58.8713377 C17.0466311,57.5510252 17.5576172,56.3068846 18.4907231,55.3737795 C19.4333498,54.4311528 20.6838377,53.9519045 21.9406736,53.9519045 C22.9658203,53.9519045 23.990967,54.2692873 24.8510746,54.9199219 C25.1748047,55.1611328 25.6286623,55.1293949 25.9143064,54.84375 L32.2111814,48.546875 C32.2429201,48.5214844 32.2683107,48.4929201 32.296875,48.4611814 L44.8620607,35.8959965 Z M31.6875,37.375 C31.2368168,37.375 30.875,37.7399904 30.875,38.1875 L30.875,39.8125 C30.875,40.2600096 31.2368168,40.625 31.6875,40.625 C32.138184,40.625 32.5,40.2600096 32.5,39.8125 L32.5,38.1875 C32.5,37.7399904 32.138184,37.375 31.6875,37.375 Z M59.3125,39 C58.8618168,39 58.5,39.3649904 58.5,39.8125 C58.5,40.2600096 58.8618168,40.625 59.3125,40.625 L60.9375,40.625 C61.388184,40.625 61.75,40.2600096 61.75,39.8125 C61.75,39.3649904 61.388184,39 60.9375,39 L59.3125,39 Z M59.3125,43.0625 C58.8618168,43.0625 58.5,43.4274904 58.5,43.875 C58.5,44.3225096 58.8618168,44.6875 59.3125,44.6875 L60.9375,44.6875 C61.388184,44.6875 61.75,44.3225096 61.75,43.875 C61.75,43.4274904 61.388184,43.0625 60.9375,43.0625 L59.3125,43.0625 Z M26.8410643,48.75 L29.7102049,48.75 L28.2756346,50.1845703 L26.8410643,48.75 Z M35.1691893,52.4824219 L37.4956059,54.8056641 C37.78125,55.0944826 38.2351076,55.1262205 38.5588377,54.8818359 C40.4790043,53.4345703 43.2148438,53.6313481 44.9160156,55.3356936 C45.8522951,56.2719731 46.3601076,57.5129393 46.3474123,58.8332518 C46.334717,60.1535643 45.7983403,61.388184 44.8398438,62.3054201 C43.9130859,63.1972656 42.6276857,63.6860356 41.2724609,63.6193846 C39.9299314,63.5654297 38.6667482,62.9750981 37.8098143,62.0039063 C37.0385746,61.1311033 36.6101076,60.0075686 36.6005859,58.8395998 C36.5974123,58.6269531 36.5148924,58.4238281 36.3625486,58.2714844 L32.8713377,54.7802734 L35.1691893,52.4824219 Z M41.4692387,55.5324705 C40.6376953,55.5356449 39.8061528,55.8498533 39.1745607,56.4846189 C37.9050295,57.7509766 37.9050295,59.8139653 39.1745607,61.0803221 C39.8061528,61.7150877 40.6376953,62.0292969 41.4724123,62.0292969 C42.3039549,62.0292969 43.1354982,61.7150877 43.7702639,61.0803221 C44.3828125,60.4677734 44.7224123,59.6520998 44.7224123,58.7824705 C44.7224123,57.912842 44.3828125,57.0971684 43.7702639,56.4846189 C43.1354982,55.8498533 42.3007812,55.5324705 41.4692387,55.5324705 Z M21.9375,55.5673828 C21.0710451,55.5673828 20.2553715,55.9069826 19.6396484,56.5195313 C19.0270998,57.1320799 18.6875,57.9509279 18.6875,58.8173828 C18.6875,59.6870121 19.0270998,60.5026858 19.6396484,61.1152344 C20.2553715,61.7309574 21.0710451,62.0673828 21.9375,62.0673828 C22.8071293,62.0673828 23.6228029,61.7309574 24.2353516,61.1152344 C24.8510746,60.5026858 25.1875,59.6870121 25.1875,58.8173828 C25.1875,57.9509279 24.8510746,57.1352543 24.2353516,56.5195313 C23.6228029,55.9069826 22.8071293,55.5673828 21.9375,55.5673828 Z M41.4724123,57.1574705 C41.888184,57.1574705 42.3039549,57.3161623 42.6181641,57.6335451 C42.9260252,57.9414063 43.0974123,58.3476563 43.0974123,58.7824705 C43.0974123,59.2172856 42.9260252,59.6267092 42.6181641,59.9345703 C41.9865721,60.5661623 40.9550781,60.5661623 40.3203125,59.9345703 C39.6887205,59.2998047 39.6887205,58.2683108 40.3203125,57.6335451 C40.6376953,57.3161623 41.053467,57.1574705 41.4724123,57.1574705 Z M21.9375,57.2082518 C22.3596189,57.2082518 22.7817387,57.3605955 23.0895998,57.6684574 C23.3942873,57.9763186 23.5625,58.3857422 23.5625,58.8173828 C23.5625,59.2521971 23.3942873,59.6616215 23.0895998,59.9694826 C22.4738768,60.5820312 21.4042969,60.5820312 20.7885746,59.9694826 C20.4838871,59.6616215 20.3125,59.2521971 20.3125,58.8173828 C20.3125,58.3857422 20.4838871,57.9763186 20.7885746,57.6684574 C21.0964357,57.3605955 21.5185547,57.2082518 21.9375,57.2082518 Z" id="Shape" fill="#E5627C" fill-rule="nonzero"></path>
                </g>
            </g>
        </g>
    </g>
</svg>