<?xml version="1.0" encoding="UTF-8"?>
<svg width="32px" height="32px" viewBox="0 0 32 32" version="1.1" xmlns="http://www.w3.org/2000/svg" xmlns:xlink="http://www.w3.org/1999/xlink">
    <!-- Generator: Sketch 53.2 (72643) - https://sketchapp.com -->
    <title>icon-medium</title>
    <desc>Created with Sketch.</desc>
    <g id="Page-2" stroke="none" stroke-width="1" fill="none" fill-rule="evenodd">
        <g id="Mobile" transform="translate(-128.000000, -237.000000)">
            <g id=".introduction">
                <g id="Group" transform="translate(8.000000, 237.000000)">
                    <g transform="translate(120.000000, 0.000000)">
                        <rect id="Rectangle" x="0" y="0" width="32" height="32"></rect>
                        <path d="M27.618304,9.36049086 C27.5680806,9.29687543 27.5212051,9.23660714 27.4676337,9.17968771 C27.4241071,9.13616114 27.3839286,9.09263371 27.337054,9.055804 C27.2232143,8.95870514 27.1026786,8.868304 26.962054,8.80133971 L20.7544643,5.74441943 C20.597098,5.66741114 20.4263397,5.60714286 20.2522326,5.56696429 C20.0714286,5.52343771 19.8839286,5.5 19.6964286,5.5 C18.8660714,5.5 18.0758929,5.93191943 17.6406254,6.628348 L16.7801337,8.00781229 L14.8013397,11.1718754 L14.0412949,9.49441943 C13.8537949,9.19977657 13.6026786,8.97544686 13.3046877,8.82812543 C13.3046877,8.82812543 7.41852657,5.93191943 7.41852657,5.93191943 L7.23102657,5.83816943 C6.88616114,5.66741114 6.527902,5.58370514 6.16629486,5.58370514 C4.930804,5.58370514 4,6.55133971 4,7.837054 L4,20.7243306 C4,21.722098 4.62611629,22.7265623 5.52678571,23.1685266 L10.8638397,25.7968754 C11.2354909,25.9776786 11.6205357,26.0714286 12.0089286,26.0714286 C13.3046877,26.0714286 14.2857143,25.0435266 14.2857143,23.680804 L14.2857143,20.7276786 L17.7142857,22.4151786 L24.0725449,25.5457591 L24.3872766,25.7031254 C24.815848,25.9140623 25.2544643,26.0212051 25.6830357,26.0212051 C27.0055806,26.0212051 28,25.0133929 28,23.680804 L28,10.46875 C28,10.0535714 27.8526786,9.67522343 27.618304,9.36049086 Z M12.5714286,17.9754469 L12.5714286,23.680804 C12.5714286,24.1026786 12.340402,24.3571429 12.0089286,24.3571429 C11.8883929,24.3571429 11.7611611,24.3270091 11.6238837,24.2566969 L6.28348257,21.628348 C5.972098,21.4743306 5.71428571,21.065848 5.71428571,20.7243306 L5.71428571,7.837054 C5.71428571,7.49888371 5.90178571,7.29799086 6.16629486,7.29799086 C6.26004486,7.29799086 6.36383971,7.32142857 6.47433057,7.375 L6.66183057,7.46875 C6.66183057,7.46875 6.66183057,7.46875 6.66517857,7.46875 L12.5479909,10.3649551 C12.5580357,10.371652 12.5647326,10.378348 12.5714286,10.3883929 L12.5714286,17.9754469 Z M15.0424111,19.190848 L14.2857143,18.815848 L14.2857143,14.1752234 L17.0044643,20.1551337 L15.0424111,19.190848 Z M15.6517857,13.0435266 L18.2734377,8.84821429 L19.09375,7.53571429 C19.2243306,7.33147343 19.4587051,7.21428571 19.6964286,7.21428571 C19.7165183,7.21428571 19.7332591,7.22433057 19.753348,7.22767857 C19.837054,7.23437543 19.9207591,7.24441943 19.9977683,7.28125 L26.2053571,10.3381694 C26.2321429,10.3515623 26.2321429,10.3816969 26.2455357,10.4084826 C26.2455357,10.4218754 26.2488837,10.4352683 26.2421877,10.4486611 L21.0993306,18.6752234 L19.4285714,21.3504469 L15.6517857,13.0435266 Z M26.2857143,23.680804 C26.2857143,24.0792409 26.0412949,24.3069194 25.6830357,24.3069194 C25.5223214,24.3069194 25.3415183,24.2600449 25.1473214,24.1629469 L23.5267857,23.3660714 L20.9754469,22.1104909 L21.4508929,21.3504469 L26.2857143,13.6127234 L26.2857143,23.680804 Z" id="Shape" fill="#14386C" fill-rule="nonzero"></path>
                    </g>
                </g>
            </g>
        </g>
    </g>
</svg>