<?xml version="1.0" encoding="UTF-8"?>
<svg width="32px" height="32px" viewBox="0 0 32 32" version="1.1" xmlns="http://www.w3.org/2000/svg" xmlns:xlink="http://www.w3.org/1999/xlink">
    <!-- Generator: Sketch 53.2 (72643) - https://sketchapp.com -->
    <title>icon-facebook</title>
    <desc>Created with Sketch.</desc>
    <g id="Page-2" stroke="none" stroke-width="1" fill="none" fill-rule="evenodd">
        <g id="Mobile" transform="translate(-8.000000, -237.000000)">
            <g id=".introduction">
                <g id="Group" transform="translate(8.000000, 237.000000)">
                    <g>
                        <rect id="Rectangle" x="0" y="0" width="32" height="32"></rect>
                        <path d="M6.18181818,4 C4.98863636,4 4,4.98863636 4,6.18181818 L4,25.8181818 C4,27.0113636 4.98863636,28 6.18181818,28 L25.8181818,28 C27.0113636,28 28,27.0113636 28,25.8181818 L28,6.18181818 C28,4.98863636 27.0113636,4 25.8181818,4 L6.18181818,4 Z M6.18181818,6.18181818 L25.8181818,6.18181818 L25.8181818,25.8181818 L20.1590909,25.8181818 L20.1590909,18.4545455 L22.9886364,18.4545455 L23.3977273,15.1818182 L20.1590909,15.1818182 L20.1590909,13.0681818 C20.1590909,12.1136364 20.3934662,11.4659091 21.7613636,11.4659091 L23.5340909,11.4659091 L23.5340909,8.5 C23.2315338,8.461648 22.1832389,8.39772727 20.9772727,8.39772727 C18.4630687,8.39772727 16.75,9.91051164 16.75,12.7272727 L16.75,15.1818182 L13.8863636,15.1818182 L13.8863636,18.4545455 L16.75,18.4545455 L16.75,25.8181818 L6.18181818,25.8181818 L6.18181818,6.18181818 Z" id="Shape" fill="#14386C" fill-rule="nonzero"></path>
                    </g>
                </g>
            </g>
        </g>
    </g>
</svg>