<?xml version="1.0" encoding="UTF-8"?>
<svg width="32px" height="32px" viewBox="0 0 32 32" version="1.1" xmlns="http://www.w3.org/2000/svg" xmlns:xlink="http://www.w3.org/1999/xlink">
    <!-- Generator: Sketch 53.2 (72643) - https://sketchapp.com -->
    <title>icon-linkedin</title>
    <desc>Created with Sketch.</desc>
    <g id="Page-2" stroke="none" stroke-width="1" fill="none" fill-rule="evenodd">
        <g id="Mobile" transform="translate(-88.000000, -237.000000)">
            <g id=".introduction">
                <g id="Group" transform="translate(8.000000, 237.000000)">
                    <g transform="translate(80.000000, 0.000000)">
                        <rect id="Rectangle" x="0" y="0" width="32" height="32"></rect>
                        <path d="M6.72727273,4 C5.235796,4 4,5.235796 4,6.72727273 L4,25.2727273 C4,26.7642051 5.235796,28 6.72727273,28 L25.2727273,28 C26.7642051,28 28,26.7642051 28,25.2727273 L28,6.72727273 C28,5.235796 26.7642051,4 25.2727273,4 L6.72727273,4 Z M6.72727273,6.18181818 L25.2727273,6.18181818 C25.5838065,6.18181818 25.8181818,6.41619345 25.8181818,6.72727273 L25.8181818,25.2727273 C25.8181818,25.5838065 25.5838065,25.8181818 25.2727273,25.8181818 L6.72727273,25.8181818 C6.41619345,25.8181818 6.18181818,25.5838065 6.18181818,25.2727273 L6.18181818,6.72727273 C6.18181818,6.41619345 6.41619345,6.18181818 6.72727273,6.18181818 Z M9.93181818,8.05681818 C8.89630655,8.05681818 8.05681818,8.89630655 8.05681818,9.93181818 C8.05681818,10.9673298 8.89630655,11.8068182 9.93181818,11.8068182 C10.9673298,11.8068182 11.8068182,10.9673298 11.8068182,9.93181818 C11.8068182,8.89630655 10.9673298,8.05681818 9.93181818,8.05681818 Z M19.7840909,13.0340909 C18.2201702,13.0340909 17.1803975,13.8906247 16.75,14.7045455 L16.6818182,14.7045455 L16.6818182,13.2727273 L13.6136364,13.2727273 L13.6136364,23.6363636 L16.8181818,23.6363636 L16.8181818,18.5227273 C16.8181818,17.1718753 17.086648,15.8636364 18.7613636,15.8636364 C20.4105116,15.8636364 20.4318182,17.3892051 20.4318182,18.5909091 L20.4318182,23.6363636 L23.6363636,23.6363636 L23.6363636,17.9431818 C23.6363636,15.1562505 23.0440338,13.0340909 19.7840909,13.0340909 Z M8.36363636,13.2727273 L8.36363636,23.6363636 L11.6022727,23.6363636 L11.6022727,13.2727273 L8.36363636,13.2727273 Z" id="Shape" fill="#14386C" fill-rule="nonzero"></path>
                    </g>
                </g>
            </g>
        </g>
    </g>
</svg>