<?xml version="1.0" encoding="UTF-8"?>
<svg width="32px" height="32px" viewBox="0 0 32 32" version="1.1" xmlns="http://www.w3.org/2000/svg" xmlns:xlink="http://www.w3.org/1999/xlink">
    <!-- Generator: Sketch 53.2 (72643) - https://sketchapp.com -->
    <title>icon-twitter</title>
    <desc>Created with Sketch.</desc>
    <g id="Page-2" stroke="none" stroke-width="1" fill="none" fill-rule="evenodd">
        <g id="Mobile" transform="translate(-48.000000, -237.000000)">
            <g id=".introduction">
                <g id="Group" transform="translate(8.000000, 237.000000)">
                    <g transform="translate(40.000000, 0.000000)">
                        <rect id="Rectangle" x="0" y="0" width="32" height="32"></rect>
                        <path d="M28,8.558594 C27.117188,8.949219 26.167969,9.214844 25.171875,9.332031 C26.1875,8.722656 26.96875,7.757813 27.335938,6.609375 C26.386719,7.171875 25.332031,7.582031 24.210938,7.804688 C23.3125,6.847656 22.03125,6.246094 20.617188,6.246094 C17.898438,6.246094 15.691406,8.453125 15.691406,11.171875 C15.691406,11.558594 15.734375,11.933594 15.820313,12.292969 C11.726563,12.089844 8.097656,10.128906 5.671875,7.148438 C5.246094,7.875 5.003906,8.722656 5.003906,9.625 C5.003906,11.332031 5.871094,12.839844 7.195313,13.722656 C6.386719,13.695313 5.628906,13.476563 4.964844,13.105469 C4.964844,13.128906 4.964844,13.148438 4.964844,13.167969 C4.964844,15.554688 6.660156,17.546875 8.914063,17.996094 C8.5,18.109375 8.066406,18.171875 7.617188,18.171875 C7.300781,18.171875 6.988281,18.140625 6.691406,18.082031 C7.316406,20.039063 9.136719,21.460938 11.289063,21.503906 C9.605469,22.824219 7.480469,23.609375 5.175781,23.609375 C4.777344,23.609375 4.386719,23.585938 4,23.539063 C6.179688,24.9375 8.765625,25.753906 11.546875,25.753906 C20.605469,25.753906 25.558594,18.25 25.558594,11.742188 C25.558594,11.53125 25.550781,11.316406 25.542969,11.105469 C26.503906,10.410156 27.339844,9.542969 28,8.558594 Z" id="Path" fill="#14386C" fill-rule="nonzero"></path>
                    </g>
                </g>
            </g>
        </g>
    </g>
</svg>